# Blender v2.80 (sub 75) OBJ File: ''
# www.blender.org
mtllib Fern.mtl
o Plane
v -0.000000 0.645090 0.322539
v 0.000000 0.000012 -0.322539
v -0.000000 0.000012 0.322539
v 0.000000 0.645090 -0.322539
v -0.322539 0.000012 0.000000
v 0.322539 0.000012 0.000000
v -0.322539 0.645090 0.000000
v 0.322539 0.645090 0.000000
vt 1.000000 0.000000
vt 0.000000 1.000000
vt 0.000000 0.000000
vt 0.000000 0.000000
vt 1.000000 1.000000
vt 0.000000 1.000000
vt 1.000000 1.000000
vt 1.000000 0.000000
vn 1.0000 -0.0000 0.0000
vn -0.0000 0.0000 1.0000
usemtl grass
s off
f 2/1/1 1/2/1 3/3/1
f 5/4/2 8/5/2 7/6/2
f 2/1/1 4/7/1 1/2/1
f 5/4/2 6/8/2 8/5/2
