# Blender v2.80 (sub 75) OBJ File: ''
# www.blender.org
mtllib groundgrass.mtl
o Plane
v -0.000000 0.000012 0.322539
v 0.000000 0.000012 -0.322539
v -0.000000 0.645090 0.322539
v 0.000000 0.645090 -0.322539
v 0.322539 0.000012 0.000000
v -0.322539 0.000012 0.000000
v 0.322539 0.645090 0.000000
v -0.322539 0.645090 0.000000
v 0.000000 0.000012 -0.322539
v -0.000000 0.000012 0.322539
v 0.000000 0.645090 -0.322539
v -0.000000 0.645090 0.322539
v -0.322539 0.000012 0.000000
v 0.322539 0.000012 0.000000
v -0.322539 0.645090 0.000000
v 0.322539 0.645090 0.000000
vt 0.000000 0.000000
vt 1.000000 0.000000
vt 1.000000 1.000000
vt 0.000000 1.000000
vt 0.000000 0.000000
vt 1.000000 0.000000
vt 1.000000 1.000000
vt 0.000000 1.000000
vt 0.000000 0.000000
vt 1.000000 0.000000
vt 1.000000 1.000000
vt 0.000000 1.000000
vt 0.000000 0.000000
vt 1.000000 0.000000
vt 1.000000 1.000000
vt 0.000000 1.000000
vn 1.0000 0.0000 0.0000
vn 0.0000 0.0000 -1.0000
vn -1.0000 -0.0000 -0.0000
vn -0.0000 0.0000 1.0000
usemtl grass
s off
f 1/1/1 2/2/1 4/3/1 3/4/1
f 5/5/2 6/6/2 8/7/2 7/8/2
f 9/9/3 10/10/3 12/11/3 11/12/3
f 13/13/4 14/14/4 16/15/4 15/16/4
